<svg id="Layer_1" data-name="Layer 1" xmlns="http://www.w3.org/2000/svg" viewBox="0 0 340.07 185.66"><defs><style>.cls-1{fill:#1b3e74;}</style></defs><path class="cls-1" d="M191.86,395.59l3.8-11.45h-36l-21.79,65.7h37.46l3.8-11.45h-24l5.27-15.91h20.92l3.78-11.41H164.22l5.13-15.48Z" transform="translate(-137.88 -265.33)"/><path class="cls-1" d="M238.24,402.59c5.23-.27,9.55-2.22,14.4-4.85l-17.29,52.1H221.54l-12.7-42.5a37.42,37.42,0,0,1-1.25-5.34h-.2q-.76,3.39-3.11,10.47l-12.4,37.37H179.1l21.79-65.7H215.6l12.11,41.31q1.22,4.13,1.42,5.22h.2a71.08,71.08,0,0,1,2.61-9.08Z" transform="translate(-137.88 -265.33)"/><path class="cls-1" d="M275.24,396.08a18.31,18.31,0,0,1,8.6-1.89q8.54,0,13.42,4.5l4.36-13.15q-5.46-2.51-14.74-2.5a36.94,36.94,0,0,0-19.47,5.07A25.57,25.57,0,0,0,256,402.34q-4.14,12.46,8.53,19,8.08,4.07,9.5,6.45a5.84,5.84,0,0,1,.53,5,9.18,9.18,0,0,1-4.46,5.07,17.79,17.79,0,0,1-8.95,2q-9.72,0-15.18-6.58l-4.65,14Q247,451,257.89,451q11.88,0,20-5a25.91,25.91,0,0,0,11.24-14.43q2.13-6.44.15-11.11t-10-8.86c-4.56-2.43-7.28-4.37-8.17-5.79a5.32,5.32,0,0,1-.49-4.69A8.94,8.94,0,0,1,275.24,396.08Z" transform="translate(-137.88 -265.33)"/><path class="cls-1" d="M308.51,384.14l-21.79,65.7H300.2l21.8-65.7Z" transform="translate(-137.88 -265.33)"/><path class="cls-1" d="M362.92,449.84l-.92-65.7H346.15l-45,65.7h14.63l9.65-15h23l-.26,15ZM332,424l14.84-23a33.63,33.63,0,0,0,3-5.55h.37a25.37,25.37,0,0,0-.92,5.72L348.87,424Z" transform="translate(-137.88 -265.33)"/><path class="cls-1" d="M397.33,396.08a18.27,18.27,0,0,1,8.59-1.89q8.54,0,13.42,4.5l4.36-13.15Q418.24,383,409,383a37,37,0,0,0-19.48,5.07,25.57,25.57,0,0,0-11.44,14.23q-4.12,12.46,8.53,19,8.09,4.07,9.5,6.45a5.77,5.77,0,0,1,.53,5,9.18,9.18,0,0,1-4.46,5.07,17.75,17.75,0,0,1-8.94,2q-9.73,0-15.18-6.58l-4.66,14Q369.1,451,380,451q11.88,0,20-5A25.86,25.86,0,0,0,411.2,431.6q2.13-6.44.15-11.11t-10-8.86c-4.56-2.43-7.28-4.37-8.17-5.79a5.32,5.32,0,0,1-.49-4.69A9,9,0,0,1,397.33,396.08Z" transform="translate(-137.88 -265.33)"/><path class="cls-1" d="M452.32,384.14H430.46l-21.79,65.7h21.77a45.14,45.14,0,0,0,27.41-9.22,48.65,48.65,0,0,0,17.55-24.45Q486,384.15,452.32,384.14Zm8.83,32.24a33.35,33.35,0,0,1-10.81,16.07,26.55,26.55,0,0,1-17,5.94H426l14.19-42.8h7.32q9.15,0,13.05,5.5T461.15,416.38Z" transform="translate(-137.88 -265.33)"/><path class="cls-1" d="M356.6,305.74c8.87,16.23,7,39,.72,54.76-2.89,6.9-15.25,21.41-15.25,21.41,8.59-16.08,20.17-43.66,9.06-66.42C350.39,315.16,356.55,306.16,356.6,305.74Z" transform="translate(-137.88 -265.33)"/><path class="cls-1" d="M339.36,278.7l-15.19,12.62c-2,1.65-3.4,4.55-1.83,6.92,3.65,3.46,8.92,4.65,13.74,5.39a4.81,4.81,0,0,0,4.47-1.49l9.33-10.26s-11.53-1-12.48-2C336.74,289.12,334.89,286.14,339.36,278.7Z" transform="translate(-137.88 -265.33)"/><path class="cls-1" d="M326.44,316.86c-12.05.73-31.62,17.14-54.67,29.61a44,44,0,0,1-13,5.08l.78-6.77-3.27,7.09v0c-8.81.61-11.7-5.23-12.61-8.15.1-9,22.29-23,21.58-23.49,23.6,5.71,57.33-31.21,49.94-46.16-6.12-19.38-30.58-2.11-43.22,8.75-12.08,10.39-27.88,33-31.72,46.67-9.53,30.55-44.05,17.35-46.93,13,10,23.16,37.11,14.3,40,9.21,5.14,12.4,12.1,11.88,12.62,11.85-16.1,12.18-22.13,33.07-8.34,36.7a4.56,4.56,0,0,0,1.27.35c3.31.48,8.49-1.84,14.64-5.6h0c24-14.71,62.94-51.6,64.5-32,11.93-8,11.73-17.43-.28-17.38a22,22,0,0,0-10.81,3c-12.78,7.36-42.11,28.72-55.5,36-15.68,8.52-7.18-20.24.85-21.34,23.29-2.59,42.58-28,63.17-35.85,16.15-5.29,10.16,9.05,10.16,9.05C350.21,323.86,341.51,316,326.44,316.86ZM273,307.17a29.37,29.37,0,0,1-2-4l6-2.69c3.55,2.66,4,4.49,4,4.49C281,305.25,273.86,308.31,273,307.17Zm19.57-31.89c21.61-4.45,12.41,26.8-8.77,32.94,20.56-28-33.45-12.54-21.62,8.06L243.86,333C246.13,322,269.38,283.12,292.56,275.28Z" transform="translate(-137.88 -265.33)"/><polygon class="cls-1" points="117.45 99.75 110.17 105.98 115.88 113.33 124.1 105.76 117.45 99.75"/><polygon class="cls-1" points="177.01 100.79 169.48 108.32 175.97 115.99 185.99 108.76 177.01 100.79"/></svg>